<svg width="238" height="53" viewBox="0 0 238 53" fill="none" xmlns="http://www.w3.org/2000/svg">
<path d="M46.232 0.599998H0.664V10.904H17.624V52.76H29.272V10.904H46.232V0.599998ZM95.107 0.599998H49.539V10.904H66.499V52.76H78.147V10.904H95.107V0.599998Z" fill="url(#paint0_linear_38_28)"/>
<path d="M142.734 12.2L135.966 37.688L129.294 12.2H120.222L113.502 37.784L106.782 12.2H97.422L108.702 51.32H117.534L124.542 26.792L131.55 51.32H140.382L151.662 12.2H142.734ZM165.907 22.52C157.219 22.52 150.979 28.712 150.979 37.256C150.979 45.8 157.219 51.992 165.907 51.992C174.595 51.992 180.835 45.8 180.835 37.256C180.835 28.712 174.595 22.52 165.907 22.52ZM165.907 29.816C169.939 29.816 172.579 32.936 172.579 37.256C172.579 41.576 169.939 44.696 165.907 44.696C161.875 44.696 159.235 41.576 159.235 37.256C159.235 32.936 161.875 29.816 165.907 29.816ZM185.841 51.32H194.385V36.92C194.385 32.648 197.121 30.056 201.681 30.056C203.361 30.056 204.849 30.392 206.049 31.016L205.953 23C204.849 22.616 203.841 22.52 202.257 22.52C198.657 22.52 196.065 23.816 194.385 26.072V23.192H185.841V51.32ZM221.331 51.992C225.027 51.992 227.715 50.696 229.395 48.44V51.32H237.939V11H229.395V26.072C227.715 23.816 225.027 22.52 221.331 22.52C213.267 22.52 207.651 28.712 207.651 37.256C207.651 45.8 213.267 51.992 221.331 51.992ZM222.675 44.696C218.595 44.696 216.003 41.576 216.003 37.256C216.003 32.936 218.595 29.816 222.675 29.816C226.851 29.816 229.539 32.936 229.539 37.256C229.539 41.576 226.851 44.696 222.675 44.696Z" fill="url(#paint1_linear_38_28)"/>
<defs>
<linearGradient id="paint0_linear_38_28" x1="120.5" y1="-4" x2="120.5" y2="60" gradientUnits="userSpaceOnUse">
<stop stop-color="#5C369A"/>
<stop offset="1" stop-color="#B385FF"/>
</linearGradient>
<linearGradient id="paint1_linear_38_28" x1="120.5" y1="-4" x2="120.5" y2="60" gradientUnits="userSpaceOnUse">
<stop stop-color="#57B587"/>
<stop offset="1" stop-color="#575AB5"/>
</linearGradient>
</defs>
</svg>
